<svg width="64" height="64" viewBox="0 0 64 64" fill="none" xmlns="http://www.w3.org/2000/svg">
<rect width="64" height="64" rx="8" fill="#414141"/>
<path d="M45.8633 18.6367L32.5898 14.1133C32.4297 14.0586 32.2148 14.0312 32 14.0312C31.7852 14.0312 31.5703 14.0586 31.4102 14.1133L18.1367 18.6367C17.8125 18.7461 17.5469 19.1211 17.5469 19.4648V38.3086C17.5469 38.6523 17.7695 39.1055 18.0391 39.3203L31.5039 49.8125C31.6406 49.918 31.8164 49.9727 31.9961 49.9727C32.1758 49.9727 32.3555 49.918 32.4883 49.8125L45.9531 39.3203C46.2227 39.1094 46.4453 38.6562 46.4453 38.3086V19.4648C46.4531 19.1211 46.1875 18.75 45.8633 18.6367ZM43.6406 37.5586L32 46.6289L20.3594 37.5586V20.8555L32 16.8867L43.6406 20.8555V37.5586ZM27.7891 29.707C27.6719 29.5469 27.4844 29.4492 27.2812 29.4492H25.125C24.8711 29.4492 24.7227 29.7383 24.8711 29.9453L29.8086 36.7422C29.867 36.8221 29.9434 36.8871 30.0316 36.9319C30.1199 36.9767 30.2174 37.0001 30.3164 37.0001C30.4154 37.0001 30.5129 36.9767 30.6012 36.9319C30.6894 36.8871 30.7658 36.8221 30.8242 36.7422L39.1289 25.3086C39.2773 25.1016 39.1289 24.8125 38.875 24.8125H36.7188C36.5195 24.8125 36.3281 24.9102 36.2109 25.0703L30.3164 33.1875L27.7891 29.707Z" fill="#FAFAFA"/>
</svg>
