<svg width="64" height="64" viewBox="0 0 64 64" fill="none" xmlns="http://www.w3.org/2000/svg">
<rect width="64" height="64" rx="8" fill="#414141"/>
<g clip-path="url(#clip0_509_162)">
<path d="M46.8954 19.6778L39.5991 12.3815C39.3545 12.1372 39.0232 12 38.6778 12H18.026C17.3064 12 16.7231 12.5833 16.7231 13.3029V47.4722C16.7231 48.1918 17.3064 48.7752 18.026 48.7752H24.2476V50.6971C24.2476 51.1775 24.5121 51.6191 24.9355 51.8458C25.3594 52.0729 25.8734 52.0475 26.2732 51.7811L28.7751 50.1131L31.2772 51.7811C31.4951 51.9266 31.7473 52 32 52C32.2107 52 32.4221 51.949 32.6147 51.8458C33.0383 51.619 33.3028 51.1775 33.3028 50.6971V48.7752H45.9738C46.6934 48.7752 47.2767 48.1918 47.2767 47.4722V20.5992C47.2769 20.2536 47.1397 19.9223 46.8954 19.6778ZM39.9807 16.4485L42.8283 19.2963H39.9805V16.4485H39.9807ZM32.1809 37.649C31.9728 37.8756 31.8515 38.1682 31.8384 38.4756L31.7851 39.7329L30.5279 39.7863C30.2207 39.7995 29.928 39.9204 29.7015 40.1285L28.7751 40.9795L27.8489 40.1285C27.6225 39.9207 27.3297 39.7995 27.0225 39.7863L25.7652 39.7329L25.712 38.4757C25.6989 38.1685 25.5777 37.8757 25.3695 37.6493L24.5186 36.723L25.3695 35.7969C25.5776 35.5704 25.6989 35.2777 25.712 34.9704L25.7653 33.713L27.0225 33.6597C27.3296 33.6465 27.6225 33.5252 27.8489 33.3174L28.7751 32.4664L29.7015 33.3174C29.9279 33.5252 30.2207 33.6465 30.5279 33.6597L31.7851 33.713L31.8384 34.9704C31.8515 35.2774 31.9728 35.5702 32.1809 35.7966L33.0318 36.723L32.1809 37.649ZM29.4981 47.4632C29.2792 47.3172 29.0273 47.2443 28.7753 47.2443C28.5234 47.2443 28.2716 47.3172 28.0527 47.4632L26.8535 48.2624V42.7527L27.8939 43.7087C28.1432 43.9375 28.4592 44.0521 28.7754 44.0521C29.0918 44.0521 29.4077 43.9375 29.657 43.7087L30.6974 42.7527V48.2624L29.4981 47.4632ZM33.3031 46.1693V42.2584C33.8774 42.1387 34.3125 41.6432 34.3382 41.0392L34.4219 39.0615L35.7607 37.6046C36.2188 37.1061 36.2188 36.3398 35.7607 35.8415L34.4219 34.3842L34.3382 32.4067C34.3095 31.7306 33.768 31.189 33.0916 31.1601L31.1141 31.0762L29.6569 29.7374C29.1583 29.2796 28.3924 29.2796 27.8938 29.7374L26.4365 31.0762L24.459 31.1601C23.7828 31.189 23.2411 31.7305 23.2124 32.4069L23.1288 34.3844L21.7899 35.8413C21.3319 36.3398 21.3319 37.1061 21.7899 37.6044L23.1287 39.0615L23.2123 41.0391C23.2379 41.6431 23.6732 42.1386 24.2476 42.2583V46.1693H19.3291V14.6059H37.3747V20.5992C37.3747 21.3188 37.9582 21.9022 38.6778 21.9022H44.671V46.1694H33.3031V46.1693Z" fill="#FAFAFA"/>
</g>
<defs>
<clipPath id="clip0_509_162">
<rect width="40" height="40" fill="white" transform="translate(12 12)"/>
</clipPath>
</defs>
</svg>
