<svg width="64" height="64" viewBox="0 0 64 64" fill="none" xmlns="http://www.w3.org/2000/svg">
<rect width="64" height="64" rx="8" fill="#414141"/>
<path d="M40.75 30.75H43.25V33.25H40.75V30.75ZM49.5 32V39.5H47C47 41.5712 45.3212 43.25 43.25 43.25C41.1788 43.25 39.5 41.5712 39.5 39.5H37C37 41.5712 35.3212 43.25 33.25 43.25C31.1788 43.25 29.5 41.5712 29.5 39.5H24.5C24.5 41.5712 22.8212 43.25 20.75 43.25C18.6788 43.25 17 41.5712 17 39.5H14.5V22H39.5V27H44.5L49.5 32ZM22 39.5C22 38.8113 21.4387 38.25 20.75 38.25C20.0613 38.25 19.5 38.8113 19.5 39.5C19.5 40.1887 20.0613 40.75 20.75 40.75C21.4387 40.75 22 40.1887 22 39.5ZM34.5 39.5C34.5 38.8113 33.9387 38.25 33.25 38.25C32.5613 38.25 32 38.8113 32 39.5C32 40.1887 32.5613 40.75 33.25 40.75C33.9387 40.75 34.5 40.1887 34.5 39.5ZM37 24.5H17V37H17.9737C18.66 36.2375 19.6438 35.75 20.75 35.75C21.8562 35.75 22.84 36.2375 23.5262 37H30.4725C31.1588 36.2375 32.1425 35.75 33.2488 35.75C34.355 35.75 35.3387 36.2375 36.025 37H37V24.5ZM44.5 39.5C44.5 38.8113 43.9387 38.25 43.25 38.25C42.5613 38.25 42 38.8113 42 39.5C42 40.1887 42.5613 40.75 43.25 40.75C43.9387 40.75 44.5 40.1887 44.5 39.5ZM47 33.035L43.465 29.5H39.5V37H40.4737C41.16 36.2375 42.1437 35.75 43.25 35.75C44.3563 35.75 45.34 36.2375 46.0263 37H47V33.035Z" fill="#FAFAFA"/>
</svg>
