<svg width="23" height="23" viewBox="0 0 23 23" fill="none" xmlns="http://www.w3.org/2000/svg">
<path d="M21.754 16.755L18.9387 14.4934C18.2925 13.9857 17.3694 13.9396 16.7233 14.4473L14.3233 16.2011C14.0464 16.4319 13.631 16.3857 13.354 16.1088L9.75404 12.878L6.52327 9.27804C6.24635 9.00111 6.24635 8.63188 6.43096 8.3088L8.18481 5.9088C8.6925 5.26265 8.64635 4.33957 8.13866 3.69342L5.87712 0.878036C5.18481 0.0472664 3.93866 -0.0450413 3.15404 0.739574L0.754041 3.13957C0.384811 3.5088 0.200195 4.0165 0.200195 4.52419C0.430965 9.23188 2.55404 13.7088 5.6925 16.8473C8.83096 19.9857 13.3079 22.1088 18.0156 22.3396C18.5233 22.3857 19.031 22.155 19.4002 21.7857L21.8002 19.3857C22.6771 18.6934 22.631 17.4011 21.754 16.755Z" fill="#BABABA"/>
</svg>
