<svg width="30" height="27" viewBox="0 0 30 27" fill="none" xmlns="http://www.w3.org/2000/svg">
<path d="M28.5276 1.19323C28.0476 0.786193 27.2937 0.727953 26.5142 1.04091H26.5129C25.6931 1.36987 3.30587 10.9724 2.39451 11.3648C2.22875 11.4224 0.781071 11.9625 0.930191 13.1657C1.06331 14.2505 2.22683 14.6998 2.36891 14.7516L8.06043 16.7004C8.43803 17.9574 9.83003 22.5948 10.1379 23.5856C10.3299 24.2032 10.6428 25.0147 11.1913 25.1817C11.6726 25.3673 12.1513 25.1977 12.4611 24.9545L15.9408 21.727L21.558 26.1078L21.6918 26.1878C22.0732 26.3568 22.4387 26.4412 22.7875 26.4412C23.0569 26.4412 23.3155 26.3907 23.5625 26.2896C24.4041 25.944 24.7408 25.142 24.776 25.0512L28.9718 3.24187C29.2278 2.07707 28.872 1.48443 28.5276 1.19323ZM13.08 17.48L11.16 22.6L9.23995 16.2L23.96 5.31995L13.08 17.48Z" fill="#BABABA"/>
</svg>
