<svg width="24" height="26" viewBox="0 0 24 26" fill="none" xmlns="http://www.w3.org/2000/svg">
<path d="M23.0529 5.87462C22.6166 4.31835 21.7537 3.08635 20.4875 2.21489C18.8897 1.11409 17.0518 0.723687 15.4646 0.486887C13.2683 0.15942 11.279 0.113553 9.3846 0.34502C7.60753 0.56262 6.26993 0.910353 5.0486 1.47142C2.65607 2.57009 1.22033 4.34929 0.781933 6.75782C0.5686 7.92689 0.425667 8.98395 0.342467 9.99195C0.150467 12.3226 0.324334 14.3856 0.874733 16.297C1.4102 18.1605 2.34673 19.4928 3.73767 20.3674C4.09287 20.5904 4.54513 20.7514 4.9846 20.9072C5.20433 20.985 5.41553 21.0618 5.60007 21.1429V24.9082C5.60007 25.401 5.999 25.8 6.4918 25.8C6.72433 25.8 6.94727 25.7093 7.11367 25.5472L10.5878 22.168C10.7393 21.9952 10.7393 21.9952 10.895 21.992C12.0822 21.9685 13.295 21.9226 14.5003 21.8576C15.9606 21.7776 17.6523 21.6368 19.2459 20.9722C20.7041 20.3632 21.7686 19.3968 22.4075 18.1008C23.0742 16.7482 23.471 15.2826 23.6193 13.6218C23.8795 10.7013 23.6939 8.16689 23.0529 5.87462ZM17.0038 16.9893C16.655 17.56 16.1323 17.9546 15.5179 18.2106C15.0689 18.3984 14.6102 18.3589 14.1675 18.1712C10.4513 16.5989 7.5382 14.12 5.6118 10.5584C5.215 9.82449 4.93873 9.02555 4.62193 8.25009C4.55687 8.09009 4.5622 7.90342 4.5334 7.72955C4.56113 6.47622 5.5222 5.77115 6.49287 5.55782C6.86407 5.47569 7.1926 5.60689 7.4678 5.87035C8.2294 6.59782 8.83207 7.44049 9.2854 8.38555C9.4838 8.80049 9.3942 9.16742 9.05607 9.47569C8.98673 9.53969 8.91313 9.59942 8.8374 9.65595C8.0662 10.2362 7.95313 10.6746 8.3638 11.5482C9.06353 13.0341 10.2251 14.0314 11.7281 14.6501C12.1238 14.8133 12.4971 14.7322 12.8001 14.4112C12.8406 14.3685 12.8865 14.3269 12.9163 14.2778C13.5094 13.289 14.3681 13.3872 15.1617 13.9514C15.6833 14.3216 16.1889 14.712 16.7051 15.0896C17.4881 15.6666 17.4817 16.2085 17.0038 16.9893ZM12.5451 6.75249C12.3457 6.75249 12.1451 6.76849 11.9489 6.80155C11.6161 6.85809 11.3025 6.63302 11.247 6.30022C11.1915 5.96849 11.4155 5.65382 11.7483 5.59835C12.0097 5.55569 12.2785 5.53329 12.5451 5.53329C15.1851 5.53329 17.3334 7.68155 17.3334 10.3216C17.3334 10.5893 17.311 10.8581 17.2673 11.1194C17.2171 11.417 16.959 11.6282 16.6667 11.6282C16.6337 11.6282 16.5995 11.6261 16.5654 11.6197C16.2337 11.5632 16.0097 11.2496 16.0651 10.9178C16.0982 10.7237 16.1142 10.5232 16.1142 10.3226C16.1142 8.35355 14.5131 6.75249 12.5451 6.75249ZM15.2001 10.7141C15.2001 11.0501 14.927 11.3232 14.591 11.3232C14.255 11.3232 13.9819 11.0501 13.9819 10.7141C13.9819 9.70609 13.1617 8.88582 12.1537 8.88582C11.8177 8.88582 11.5446 8.61275 11.5446 8.27675C11.5446 7.94075 11.8177 7.66769 12.1537 7.66769C13.8326 7.66662 15.2001 9.03409 15.2001 10.7141ZM19.3025 11.4576C19.2385 11.7413 18.9878 11.9322 18.7083 11.9322C18.6635 11.9322 18.6177 11.9269 18.5729 11.9173C18.2443 11.8426 18.0385 11.5162 18.1131 11.1888C18.2017 10.7994 18.2465 10.3973 18.2465 9.99409C18.2465 7.03089 15.8358 4.61915 12.8715 4.61915C12.4673 4.61915 12.0662 4.66395 11.6769 4.75249C11.3505 4.82822 11.0219 4.62129 10.9483 4.29275C10.8737 3.96422 11.0795 3.63782 11.4081 3.56422C11.8859 3.45435 12.3787 3.39995 12.8737 3.39995C16.5089 3.39995 19.4667 6.35782 19.4667 9.99302C19.4667 10.488 19.4113 10.9808 19.3025 11.4576Z" fill="#BABABA"/>
</svg>
