<svg width="26" height="26" viewBox="0 0 26 26" fill="none" xmlns="http://www.w3.org/2000/svg">
<path d="M13.0002 0.199951C5.9314 0.199951 0.200195 5.93115 0.200195 13C0.200195 15.4012 0.874693 17.64 2.0252 19.5604L0.314779 25.8L6.6877 24.127C8.55151 25.1867 10.7031 25.8 13.0002 25.8C20.069 25.8 25.8002 20.0688 25.8002 13C25.8002 5.93115 20.069 0.199951 13.0002 0.199951ZM8.61895 7.02912C8.82695 7.02912 9.04066 7.02785 9.2252 7.03745C9.45346 7.04279 9.70191 7.0595 9.93978 7.58537C10.2224 8.21043 10.8379 9.77852 10.9169 9.93745C10.9958 10.0964 11.0517 10.2836 10.9419 10.4916C10.8373 10.705 10.783 10.8341 10.6294 11.0229C10.4704 11.2063 10.2963 11.4342 10.1523 11.5729C9.99335 11.7318 9.82923 11.9061 10.0127 12.2229C10.1962 12.5397 10.8333 13.5782 11.7752 14.4166C12.9859 15.4982 14.0073 15.8306 14.3252 15.9895C14.6431 16.1485 14.8271 16.1237 15.0106 15.9104C15.1994 15.7024 15.8035 14.9887 16.0169 14.6708C16.2249 14.3529 16.4372 14.4079 16.7252 14.5125C17.0175 14.617 18.5761 15.3848 18.8939 15.5437C19.2118 15.7026 19.4202 15.7813 19.5002 15.9104C19.5823 16.0437 19.5824 16.6784 19.3189 17.4187C19.0555 18.1579 17.7617 18.8727 17.1814 18.9229C16.5958 18.9773 16.0493 19.1861 13.3752 18.1333C10.1496 16.8629 8.11538 13.5591 7.95645 13.3458C7.79751 13.1378 6.66478 11.6281 6.66478 10.0708C6.66478 8.50812 7.4841 7.74282 7.77103 7.42495C8.0633 7.10708 8.40561 7.02912 8.61895 7.02912Z" fill="#BABABA"/>
</svg>
