<svg width="215" height="17" viewBox="0 0 215 17" fill="none" xmlns="http://www.w3.org/2000/svg">
<path d="M5.368 16V2.514H0.088V0.599999H12.826V2.514H7.546V16H5.368ZM15.2221 16V0.599999H21.2281C22.5774 0.599999 23.7288 0.812666 24.6821 1.238C25.6354 1.66333 26.3688 2.27933 26.8821 3.086C27.3954 3.89267 27.6521 4.85333 27.6521 5.968C27.6521 7.08267 27.3954 8.04333 26.8821 8.85C26.3688 9.642 25.6354 10.2507 24.6821 10.676C23.7288 11.1013 22.5774 11.314 21.2281 11.314H16.4321L17.4221 10.302V16H15.2221ZM25.5181 16L21.6021 10.412H23.9561L27.9161 16H25.5181ZM17.4221 10.522L16.4321 9.444H21.1621C22.5701 9.444 23.6334 9.14333 24.3521 8.542C25.0854 7.926 25.4521 7.068 25.4521 5.968C25.4521 4.868 25.0854 4.01733 24.3521 3.416C23.6334 2.81467 22.5701 2.514 21.1621 2.514H16.4321L17.4221 1.414V10.522ZM28.8745 16L35.8485 0.599999H38.0265L45.0225 16H42.7125L36.4865 1.832H37.3665L31.1405 16H28.8745ZM31.8445 12.15L32.4385 10.39H41.1065L41.7445 12.15H31.8445ZM47.3198 16V0.599999H49.1238L59.3098 13.25H58.3638V0.599999H60.5638V16H58.7598L48.5738 3.35H49.5198V16H47.3198ZM69.6613 16.176C68.4879 16.176 67.3659 16 66.2953 15.648C65.2246 15.2813 64.3813 14.812 63.7653 14.24L64.5793 12.524C65.1659 13.0373 65.9139 13.4627 66.8233 13.8C67.7326 14.1373 68.6786 14.306 69.6613 14.306C70.5559 14.306 71.2819 14.2033 71.8393 13.998C72.3966 13.7927 72.8073 13.514 73.0713 13.162C73.3353 12.7953 73.4673 12.3847 73.4673 11.93C73.4673 11.402 73.2913 10.9767 72.9393 10.654C72.6019 10.3313 72.1546 10.0747 71.5973 9.884C71.0546 9.67867 70.4533 9.50267 69.7933 9.356C69.1333 9.20933 68.4659 9.04067 67.7913 8.85C67.1313 8.64467 66.5226 8.388 65.9653 8.08C65.4226 7.772 64.9826 7.36133 64.6453 6.848C64.3079 6.32 64.1393 5.64533 64.1393 4.824C64.1393 4.032 64.3446 3.306 64.7553 2.646C65.1806 1.97133 65.8259 1.436 66.6913 1.04C67.5713 0.629333 68.6859 0.424 70.0353 0.424C70.9299 0.424 71.8173 0.541333 72.6973 0.775999C73.5773 1.01067 74.3399 1.348 74.9853 1.788L74.2593 3.548C73.5993 3.108 72.9026 2.79267 72.1693 2.602C71.4359 2.39667 70.7246 2.294 70.0353 2.294C69.1699 2.294 68.4586 2.404 67.9013 2.624C67.3439 2.844 66.9333 3.13733 66.6693 3.504C66.4199 3.87067 66.2953 4.28133 66.2953 4.736C66.2953 5.27867 66.4639 5.71133 66.8013 6.034C67.1533 6.35667 67.6006 6.61333 68.1433 6.804C68.7006 6.99467 69.3093 7.17067 69.9693 7.332C70.6293 7.47867 71.2893 7.64733 71.9493 7.838C72.6239 8.02867 73.2326 8.278 73.7753 8.586C74.3326 8.894 74.7799 9.30467 75.1173 9.818C75.4546 10.3313 75.6233 10.9913 75.6233 11.798C75.6233 12.5753 75.4106 13.3013 74.9853 13.976C74.5599 14.636 73.8999 15.1713 73.0053 15.582C72.1253 15.978 71.0106 16.176 69.6613 16.176ZM80.8393 7.244H88.7593V9.114H80.8393V7.244ZM81.0373 14.086H90.0133V16H78.8373V0.599999H89.7053V2.514H81.0373V14.086ZM91.3798 16L97.7818 7.266V8.96L91.7318 0.599999H94.2398L99.0358 7.178L98.0458 7.2L102.82 0.599999H105.218L99.2118 8.828V7.244L105.614 16H103.084L97.9798 8.982H98.9478L93.9098 16H91.3798ZM107.691 16V0.599999H113.697C115.046 0.599999 116.198 0.812666 117.151 1.238C118.104 1.66333 118.838 2.27933 119.351 3.086C119.864 3.89267 120.121 4.85333 120.121 5.968C120.121 7.08267 119.864 8.04333 119.351 8.85C118.838 9.642 118.104 10.258 117.151 10.698C116.198 11.1233 115.046 11.336 113.697 11.336H108.901L109.891 10.302V16H107.691ZM109.891 10.522L108.901 9.422H113.631C115.039 9.422 116.102 9.12133 116.821 8.52C117.554 7.91867 117.921 7.068 117.921 5.968C117.921 4.868 117.554 4.01733 116.821 3.416C116.102 2.81467 115.039 2.514 113.631 2.514H108.901L109.891 1.414V10.522ZM125.355 7.244H133.275V9.114H125.355V7.244ZM125.553 14.086H134.529V16H123.353V0.599999H134.221V2.514H125.553V14.086ZM138.091 16V0.599999H144.581C146.224 0.599999 147.669 0.922666 148.915 1.568C150.177 2.21333 151.152 3.11533 151.841 4.274C152.545 5.43267 152.897 6.77467 152.897 8.3C152.897 9.82533 152.545 11.1673 151.841 12.326C151.152 13.4847 150.177 14.3867 148.915 15.032C147.669 15.6773 146.224 16 144.581 16H138.091ZM140.291 14.086H144.449C145.725 14.086 146.825 13.844 147.749 13.36C148.688 12.876 149.414 12.2013 149.927 11.336C150.441 10.456 150.697 9.444 150.697 8.3C150.697 7.14133 150.441 6.12933 149.927 5.264C149.414 4.39867 148.688 3.724 147.749 3.24C146.825 2.756 145.725 2.514 144.449 2.514H140.291V14.086ZM156.267 16V0.599999H158.467V16H156.267ZM166.136 16V2.514H160.856V0.599999H173.594V2.514H168.314V16H166.136ZM175.99 16V0.599999H178.19V16H175.99ZM189.752 16.176C188.579 16.176 187.486 15.978 186.474 15.582C185.477 15.186 184.612 14.636 183.878 13.932C183.145 13.2133 182.573 12.3773 182.162 11.424C181.752 10.4707 181.546 9.42933 181.546 8.3C181.546 7.17067 181.752 6.12933 182.162 5.176C182.573 4.22267 183.145 3.394 183.878 2.69C184.612 1.97133 185.477 1.414 186.474 1.018C187.472 0.622 188.564 0.424 189.752 0.424C190.926 0.424 192.004 0.622 192.986 1.018C193.984 1.39933 194.849 1.94933 195.582 2.668C196.33 3.372 196.902 4.20067 197.298 5.154C197.709 6.10733 197.914 7.156 197.914 8.3C197.914 9.444 197.709 10.4927 197.298 11.446C196.902 12.3993 196.33 13.2353 195.582 13.954C194.849 14.658 193.984 15.208 192.986 15.604C192.004 15.9853 190.926 16.176 189.752 16.176ZM189.752 14.218C190.603 14.218 191.388 14.0713 192.106 13.778C192.84 13.4847 193.47 13.074 193.998 12.546C194.541 12.0033 194.959 11.3727 195.252 10.654C195.56 9.93533 195.714 9.15067 195.714 8.3C195.714 7.44933 195.56 6.66467 195.252 5.946C194.959 5.22733 194.541 4.604 193.998 4.076C193.47 3.53333 192.84 3.11533 192.106 2.822C191.388 2.52867 190.603 2.382 189.752 2.382C188.887 2.382 188.088 2.52867 187.354 2.822C186.636 3.11533 186.005 3.53333 185.462 4.076C184.92 4.604 184.494 5.22733 184.186 5.946C183.893 6.66467 183.746 7.44933 183.746 8.3C183.746 9.15067 183.893 9.93533 184.186 10.654C184.494 11.3727 184.92 12.0033 185.462 12.546C186.005 13.074 186.636 13.4847 187.354 13.778C188.088 14.0713 188.887 14.218 189.752 14.218ZM201.277 16V0.599999H203.081L213.267 13.25H212.321V0.599999H214.521V16H212.717L202.531 3.35H203.477V16H201.277Z" fill="white"/>
</svg>
